#!OML:ASF F:\VICON\USERDATA\INSTALL\rory3\rory3.ASF
:FULLY-SPECIFIED
:DEGREES
376
root 8.47369 17.6828 6.49328 -9.56401 61.7438 -7.80561
lowerback 13.4156 -0.348332 -6.05815
upperback 1.92142 -1.19926 1.4183
thorax -5.33321 -0.438777 5.14526
lowerneck -5.42129 -10.1775 -13.4878
upperneck 38.3956 -16.057 12.2383
head 17.2605 -6.98267 5.2799
rclavicle -1.59525e-014 -3.97569e-016
rhumerus -37.9709 -18.1763 -74.8026
rradius 47.8373
rwrist -0.993625
rhand -23.975 9.66602
rfingers 7.12502
rthumb 2.50154 -20.2991
lclavicle -1.59525e-014 -3.97569e-016
lhumerus -37.4468 0.197175 79.5139
lradius 36.1592
lwrist -3.82371
lhand -21.4412 32.6183
lfingers 7.12502
lthumb 4.94839 62.5405
rfemur -18.4406 -7.12179 23.9619
rtibia 36.2743
rfoot -22.631 4.49205
rtoes -20.0226
lfemur -9.34699 -4.28156 -18.3605
ltibia 34.1713
lfoot -17.0632 -3.1718
ltoes 3.14771
377
root 8.43886 17.697 6.51382 -9.13574 61.1627 -7.50128
lowerback 13.297 -0.337598 -6.02576
upperback 1.91472 -1.18062 1.31382
thorax -5.28032 -0.433435 5.00876
lowerneck -5.58359 -10.1603 -13.4515
upperneck 38.4128 -15.9949 12.1154
head 17.2744 -6.9636 5.21914
rclavicle -1.22253e-014 5.56597e-015
rhumerus -38.2724 -18.3401 -74.9948
rradius 47.5039
rwrist -0.622584
rhand -23.819 9.64306
rfingers 7.12502
rthumb 2.65212 -20.3202
lclavicle -1.22253e-014 5.56597e-015
lhumerus -36.8698 1.38155 78.6834
lradius 35.4205
lwrist -4.94952
lhand -20.3623 27.969
lfingers 7.12502
lthumb 5.99 57.8644
rfemur -18.7481 -8.12133 24.0918
rtibia 36.5505
rfoot -22.6076 1.43739
rtoes -18.5628
lfemur -9.35877 -4.33178 -18.3205
ltibia 33.8657
lfoot -16.761 -2.72328
ltoes 3.49252
378
root 8.40344 17.7142 6.53485 -9.10127 60.5021 -7.49779
lowerback 13.3017 -0.283379 -5.8398
upperback 1.93977 -1.08556 1.24974
thorax -5.27374 -0.391572 4.81772
lowerneck -5.61791 -10.1587 -13.4802
upperneck 38.3459 -15.9937 12.1214
head 17.2484 -6.97145 5.21945
rclavicle -4.16454e-014 -8.74653e-015
rhumerus -38.5266 -18.6232 -75.1299
rradius 47.0267
rwrist -0.415573
rhand -23.555 9.55821
rfingers 7.12502
rthumb 2.90708 -20.4017
lclavicle -4.16454e-014 -8.74653e-015
lhumerus -36.0065 2.70438 78.0424
lradius 34.3019
lwrist -5.28578
lhand -21.1382 26.5072
lfingers 7.12502
lthumb 5.24088 56.4224
rfemur -18.8469 -8.95566 24.2917
rtibia 36.7437
rfoot -22.3181 -0.864422
rtoes -13.8031
lfemur -9.22772 -4.12849 -18.1022
ltibia 33.5845
lfoot -16.5669 -2.35304
ltoes 3.40907
379
root 8.36046 17.7274 6.5568 -9.17293 59.8574 -7.54501
lowerback 13.4324 -0.210002 -5.7667
upperback 1.96683 -0.983995 1.25617
thorax -5.33111 -0.341286 4.76814
lowerneck -5.56862 -10.145 -13.493
upperneck 38.2357 -15.97 12.1066
head 17.1664 -6.97352 5.21258
rclavicle 2.61402e-014 4.77083e-015
rhumerus -38.7044 -18.7843 -75.2663
rradius 46.4782
rwrist -0.145128
rhand -23.1106 9.28724
rfingers 7.12502
rthumb 3.33632 -20.6664
lclavicle 2.61402e-014 4.77083e-015
lhumerus -35.2993 4.25889 77.2779
lradius 33.3251
lwrist -6.37466
lhand -21.1085 26.3766
lfingers 7.12502
lthumb 5.26963 56.2911
rfemur -18.832 -9.65972 24.5346
rtibia 36.8988
rfoot -21.9598 -3.25516
rtoes -10.4952
lfemur -9.05447 -3.94352 -17.8449
ltibia 33.3172
lfoot -16.4029 -1.91891
ltoes 2.79841
380
root 8.31694 17.7324 6.57885 -8.95313 59.2122 -7.20617
lowerback 13.5901 -0.116449 -5.89959
upperback 2.00628 -0.889657 1.21106
thorax -5.38648 -0.291269 4.7823
lowerneck -5.65172 -10.1322 -13.4783
upperneck 38.2632 -15.9356 12.0417
head 17.1839 -6.96431 5.18283
rclavicle -4.65156e-014 2.22639e-014
rhumerus -38.8553 -18.9201 -75.392
rradius 45.8653
rwrist 0.313803
rhand -22.7631 9.46094
rfingers 7.12502
rthumb 3.6719 -20.4872
lclavicle -4.65156e-014 2.22639e-014
lhumerus -34.9337 5.34797 76.6345
lradius 32.9532
lwrist -6.97016
lhand -20.9125 26.7886
lfingers 7.12502
lthumb 5.45879 56.6983
rfemur -18.7595 -10.6648 24.5861
rtibia 37.0344
rfoot -21.3998 -5.47378
rtoes -9.95838
lfemur -8.82685 -3.7281 -17.8119
ltibia 33.0832
lfoot -16.3224 -1.37119
ltoes 1.99819
381
root 8.2764 17.7408 6.59805 -8.58431 58.5705 -6.83069
lowerback 13.6466 -0.0217085 -5.97145
upperback 1.98879 -0.782902 1.1521
thorax -5.44951 -0.235504 4.74293
lowerneck -5.7453 -10.1075 -13.5059
upperneck 38.3369 -15.8818 11.9939
head 17.2347 -6.94919 5.17549
rclavicle 5.26779e-015 -1.19271e-014
rhumerus -39.0641 -19.0762 -75.4299
rradius 45.236
rwrist 0.902709
rhand -22.6406 9.68102
rfingers 7.12502
rthumb 3.79014 -20.265
lclavicle 5.26779e-015 -1.19271e-014
lhumerus -34.7647 5.97577 76.2529
lradius 32.9124
lwrist -6.80505
lhand -21.333 28.4388
lfingers 7.12502
lthumb 5.05278 58.3586
rfemur -18.8154 -11.5104 24.5101
rtibia 37.1814
rfoot -20.8253 -6.97899
rtoes -6.84978
lfemur -8.71503 -3.64683 -17.8295
ltibia 32.8458
lfoot -16.21 -0.759201
ltoes 1.62391
382
root 8.23834 17.7546 6.61682 -8.24661 57.8757 -6.58058
lowerback 13.5584 0.0788568 -5.93488
upperback 1.95772 -0.645666 1.0801
thorax -5.45254 -0.169242 4.61958
lowerneck -5.79227 -10.0999 -13.4815
upperneck 38.4216 -15.8646 11.9355
head 17.2799 -6.94447 5.14957
rclavicle -5.397e-014 -1.74931e-014
rhumerus -39.3116 -19.1935 -75.541
rradius 44.6774
rwrist 1.34304
rhand -22.5295 9.48625
rfingers 7.12502
rthumb 3.89742 -20.4579
lclavicle -5.397e-014 -1.74931e-014
lhumerus -34.62 6.28214 75.9249
lradius 32.9501
lwrist -6.44233
lhand -21.3805 28.9649
lfingers 7.12502
lthumb 5.00695 58.8857
rfemur -18.9308 -12.0559 24.4495
rtibia 37.3485
rfoot -20.2285 -8.12208
rtoes -3.70987
lfemur -8.6681 -3.60175 -17.7771
ltibia 32.601
lfoot -16.0417 -0.154115
ltoes 1.98161
383
root 8.20322 17.7694 6.63558 -7.88779 57.0973 -6.20425
lowerback 13.535 0.195575 -5.90208
upperback 1.90424 -0.497557 0.922188
thorax -5.51669 -0.0958077 4.40629
lowerneck -5.62212 -10.0744 -13.368
upperneck 38.4119 -15.8563 11.901
head 17.2091 -6.93903 5.12146
rclavicle -9.0447e-015 3.18055e-015
rhumerus -39.6372 -19.2891 -75.7806
rradius 44.152
rwrist 1.59107
rhand -22.5585 9.11685
rfingers 7.12502
rthumb 3.86948 -20.8278
lclavicle -9.0447e-015 3.18055e-015
lhumerus -34.5807 6.47323 75.4636
lradius 32.9979
lwrist -6.02704
lhand -21.1802 28.1485
lfingers 7.12502
lthumb 5.20032 58.0647
rfemur -18.9305 -12.2808 24.2366
rtibia 37.5252
rfoot -19.694 -9.10933
rtoes -2.06811
lfemur -8.49569 -3.45907 -17.8111
ltibia 32.3617
lfoot -15.8739 0.504521
ltoes 1.93318
384
root 8.16938 17.78 6.65316 -7.60302 56.2799 -5.89535
lowerback 13.5302 0.265605 -5.7935
upperback 1.85832 -0.401004 0.763698
thorax -5.57669 -0.0496592 4.1587
lowerneck -5.55234 -9.9931 -13.2137
upperneck 38.4222 -15.7547 11.8373
head 17.1457 -6.88848 5.08788
rclavicle 4.12478e-014 1.43125e-014
rhumerus -39.8769 -19.335 -76.0459
rradius 43.6382
rwrist 1.73927
rhand -22.5583 8.91051
rfingers 7.12502
rthumb 3.86962 -21.0341
lclavicle 4.12478e-014 1.43125e-014
lhumerus -34.5895 6.83685 74.9028
lradius 33.0414
lwrist -5.54247
lhand -21.5753 27.8455
lfingers 7.12502
lthumb 4.81884 57.7707
rfemur -18.9084 -12.4464 23.9905
rtibia 37.7026
rfoot -19.2153 -9.71067
rtoes 0.389583
lfemur -8.30107 -3.31653 -17.8302
ltibia 32.1262
lfoot -15.6455 1.31968
ltoes 1.38024
385
root 8.13283 17.7852 6.6697 -7.35898 55.4961 -5.6641
lowerback 13.5244 0.329412 -5.68494
upperback 1.83792 -0.305438 0.705344
thorax -5.60721 -0.00457793 4.0178
lowerneck -5.71434 -9.91236 -13.1856
upperneck 38.5269 -15.5886 11.6957
head 17.187 -6.82624 5.0474
rclavicle 4.64162e-014 -1.03368e-014
rhumerus -39.9412 -19.3645 -76.1209
rradius 43.0204
rwrist 1.93747
rhand -22.1923 8.79056
rfingers 7.12502
rthumb 4.22304 -21.1473
lclavicle 4.64162e-014 -1.03368e-014
lhumerus -34.4974 7.27142 74.5605
lradius 33.0333
lwrist -5.00919
lhand -22.0767 28.0213
lfingers 7.12502
lthumb 4.33469 57.9569
rfemur -18.8862 -12.7007 23.742
rtibia 37.9121
rfoot -18.9058 -9.94748
rtoes -1.19746
lfemur -8.1399 -3.1892 -17.7922
ltibia 31.8372
lfoot -15.4158 1.98474
ltoes 1.29818
386
root 8.09786 17.7944 6.69069 -7.21111 54.7063 -5.54798
lowerback 13.4724 0.430268 -5.5807
upperback 1.84981 -0.15203 0.736211
thorax -5.58316 0.0675019 3.96321
lowerneck -5.88014 -9.87767 -13.3324
upperneck 38.608 -15.4878 11.642
head 17.2653 -6.8067 5.06422
rclavicle 4.9895e-014 8.74653e-015
rhumerus -39.9597 -19.475 -76.0233
rradius 42.4183
rwrist 2.28924
rhand -21.5894 8.769
rfingers 7.12502
rthumb 4.80525 -21.1565
lclavicle 4.9895e-014 8.74653e-015
lhumerus -34.3719 7.75555 74.3745
lradius 33.1031
lwrist -4.5981
lhand -22.0816 28.3288
lfingers 7.12502
lthumb 4.32999 58.2645
rfemur -18.8385 -12.7699 23.5068
rtibia 38.1478
rfoot -18.7028 -10.2091
rtoes 0.113298
lfemur -7.94481 -3.05751 -17.667
ltibia 31.5066
lfoot -15.183 2.5102
ltoes 1.66762
387
root 8.06941 17.8138 6.71236 -7.03951 53.9467 -5.38687
lowerback 13.3252 0.509461 -5.46118
upperback 1.91257 -0.0190953 0.743114
thorax -5.44978 0.124968 3.8773
lowerneck -6.03885 -9.85888 -13.4209
upperneck 38.6191 -15.4106 11.567
head 17.296 -6.79284 5.05159
rclavicle 3.77691e-015 -3.18055e-015
rhumerus -39.9174 -19.6186 -75.9853
rradius 41.7416
rwrist 2.83152
rhand -21.6913 9.15442
rfingers 7.12502
rthumb 4.70684 -20.7733
lclavicle 3.77691e-015 -3.18055e-015
lhumerus -34.2431 8.30268 74.1544
lradius 33.1999
lwrist -4.30624
lhand -22.1912 29.0067
lfingers 7.12502
lthumb 4.2241 58.9445
rfemur -18.7997 -12.7826 23.1502
rtibia 38.4222
rfoot -18.4139 -10.2438
rtoes 2.46933
lfemur -7.68929 -2.9631 -17.6061
ltibia 31.1388
lfoot -14.9491 3.11414
ltoes 1.25238
388
root 8.04165 17.8287 6.73073 -6.78874 53.2287 -5.04167
lowerback 13.2775 0.566803 -5.40749
upperback 1.96212 0.0670819 0.715164
thorax -5.38002 0.162939 3.80128
lowerneck -6.26286 -9.82287 -13.5012
upperneck 38.7411 -15.2863 11.4265
head 17.3876 -6.7613 5.02025
rclavicle -9.50191e-014 1.27222e-014
rhumerus -39.9532 -19.6341 -75.9757
rradius 41.1893
rwrist 3.36783
rhand -22.1282 9.37677
rfingers 7.12502
rthumb 4.28494 -20.5599
lclavicle -9.50191e-014 1.27222e-014
lhumerus -34.2543 8.75991 73.9639
lradius 33.3539
lwrist -4.05527
lhand -22.0845 28.6311
lfingers 7.12502
lthumb 4.32718 58.5669
rfemur -18.6673 -12.9328 22.6264
rtibia 38.7046
rfoot -18.014 -10.2441
rtoes 3.18632
lfemur -7.37238 -2.78249 -17.6867
ltibia 30.7306
lfoot -14.6781 3.66316
ltoes 0.607268
389
root 8.00829 17.8351 6.75077 -6.51842 52.4727 -4.67051
lowerback 13.2565 0.649576 -5.40108
upperback 2.00842 0.177388 0.667541
thorax -5.33082 0.214273 3.7273
lowerneck -6.49895 -9.76414 -13.4781
upperneck 38.8221 -15.1605 11.3311
head 17.4516 -6.70912 4.99041
rclavicle 3.926e-014 -6.36111e-015
rhumerus -39.9555 -19.7382 -75.9776
rradius 40.6832
rwrist 3.83634
rhand -21.7833 8.91072
rfingers 7.12502
rthumb 4.61805 -21.0189
lclavicle 3.926e-014 -6.36111e-015
lhumerus -34.2985 8.65942 73.9488
lradius 33.6522
lwrist -3.38399
lhand -22.1928 28.2664
lfingers 7.12502
lthumb 4.22257 58.2043
rfemur -18.5155 -12.9962 22.0684
rtibia 38.9883
rfoot -17.6452 -10.3229
rtoes 4.28226
lfemur -7.08197 -2.46433 -17.7546
ltibia 30.316
lfoot -14.3441 4.21527
ltoes -0.59188
